{"accessors" : [{"bufferView" : 0, "byteOffset" : 0, "componentType" : 5123, "count" : 244680, "type" : "SCALAR", "max" : [53439], "min" : [0]}, {"bufferView" : 1, "byteOffset" : 0, "componentType" : 5126, "count" : 53440, "type" : "VEC3", "max" : [1.49501764774323, 1.5087308883667, 1.48500406742096], "min" : [-1.53365552425385, -1.52506577968597, -1.40633189678192]}, {"bufferView" : 1, "byteOffset" : 12, "componentType" : 5126, "count" : 53440, "type" : "VEC3", "max" : [0.999933362007141, 0.999895632266998, 0.999677300453186], "min" : [-0.999931931495667, -0.999968707561493, -0.999943971633911]}, {"bufferView" : 1, "byteOffset" : 24, "componentType" : 5126, "count" : 53440, "type" : "VEC2", "max" : [1.00076079368591, 1.00203335285187], "min" : [0, 0]}, {"bufferView" : 0, "byteOffset" : 489360, "componentType" : 5123, "count" : 44142, "type" : "SCALAR", "max" : [7380], "min" : [0]}, {"bufferView" : 2, "byteOffset" : 0, "componentType" : 5126, "count" : 7381, "type" : "VEC3", "max" : [1.34969651699066, 1.42422759532928, 1.59909570217133], "min" : [-1.38728559017181, -1.35964500904083, -1.34114062786102]}, {"bufferView" : 2, "byteOffset" : 12, "componentType" : 5126, "count" : 7381, "type" : "VEC3", "max" : [0.99943482875824, 0.999875545501709, 0.999611020088196], "min" : [-0.999844431877136, -0.999908685684204, -0.999751210212708]}, {"bufferView" : 2, "byteOffset" : 24, "componentType" : 5126, "count" : 7381, "type" : "VEC2", "max" : [0, 1], "min" : [0, 1]}, {"bufferView" : 0, "byteOffset" : 577644, "componentType" : 5123, "count" : 155508, "type" : "SCALAR", "max" : [26001], "min" : [0]}, {"bufferView" : 3, "byteOffset" : 0, "componentType" : 5126, "count" : 26002, "type" : "VEC3", "max" : [1.76750981807709, 1.89501309394836, 1.96046733856201], "min" : [-1.84466993808746, -1.84390163421631, -1.77831339836121]}, {"bufferView" : 3, "byteOffset" : 12, "componentType" : 5126, "count" : 26002, "type" : "VEC3", "max" : [0.999858915805817, 0.999876618385315, 0.999959290027618], "min" : [-0.999905169010162, -0.999981939792633, -0.999998688697815]}, {"bufferView" : 3, "byteOffset" : 24, "componentType" : 5126, "count" : 26002, "type" : "VEC2", "max" : [0, 1], "min" : [0, 1]}, {"bufferView" : 0, "byteOffset" : 888660, "componentType" : 5123, "count" : 392268, "type" : "SCALAR", "max" : [65534], "min" : [0]}, {"bufferView" : 4, "byteOffset" : 0, "componentType" : 5126, "count" : 65535, "type" : "VEC3", "max" : [1.34059405326843, 0.431508004665375, -0.378924995660782], "min" : [-1.35255801677704, -1.31034398078918, -1.32539200782776]}, {"bufferView" : 4, "byteOffset" : 12, "componentType" : 5126, "count" : 65535, "type" : "VEC3", "max" : [0.999925911426544, 0.999989867210388, 0.999994874000549], "min" : [-0.999901056289673, -0.999967575073242, -0.999976217746735]}, {"bufferView" : 4, "byteOffset" : 24, "componentType" : 5126, "count" : 65535, "type" : "VEC2", "max" : [0, 1], "min" : [0, 1]}, {"bufferView" : 0, "byteOffset" : 1673196, "componentType" : 5123, "count" : 391350, "type" : "SCALAR", "max" : [65533], "min" : [0]}, {"bufferView" : 5, "byteOffset" : 0, "componentType" : 5126, "count" : 65534, "type" : "VEC3", "max" : [1.08084499835968, 1.39011800289154, 0.802138984203339], "min" : [-1.33345401287079, -1.34143400192261, -0.842972993850708]}, {"bufferView" : 5, "byteOffset" : 12, "componentType" : 5126, "count" : 65534, "type" : "VEC3", "max" : [1.00000381469727, 0.999976336956024, 0.99842894077301], "min" : [-0.999469578266144, -0.99998152256012, -0.999923050403595]}, {"bufferView" : 5, "byteOffset" : 24, "componentType" : 5126, "count" : 65534, "type" : "VEC2", "max" : [0, 1], "min" : [0, 1]}, {"bufferView" : 0, "byteOffset" : 2455896, "componentType" : 5123, "count" : 390882, "type" : "SCALAR", "max" : [65531], "min" : [0]}, {"bufferView" : 6, "byteOffset" : 0, "componentType" : 5126, "count" : 65532, "type" : "VEC3", "max" : [1.1994800567627, 1.35587096214294, 1.10675597190857], "min" : [-1.38478100299835, -1.33874905109406, 0.366120010614395]}, {"bufferView" : 6, "byteOffset" : 12, "componentType" : 5126, "count" : 65532, "type" : "VEC3", "max" : [0.999940514564514, 0.999909996986389, 0.998344123363495], "min" : [-0.99999862909317, -0.999929189682007, -0.999944388866425]}, {"bufferView" : 6, "byteOffset" : 24, "componentType" : 5126, "count" : 65532, "type" : "VEC2", "max" : [0, 1], "min" : [0, 1]}, {"bufferView" : 0, "byteOffset" : 3237660, "componentType" : 5123, "count" : 177609, "type" : "SCALAR", "max" : [29833], "min" : [0]}, {"bufferView" : 7, "byteOffset" : 0, "componentType" : 5126, "count" : 29834, "type" : "VEC3", "max" : [1.26701295375824, 0.466026991605759, 1.58702898025513], "min" : [-0.272756993770599, -0.39444699883461, 0.802973985671997]}, {"bufferView" : 7, "byteOffset" : 12, "componentType" : 5126, "count" : 29834, "type" : "VEC3", "max" : [0.999986231327057, 0.998919427394867, 0.999997317790985], "min" : [-0.998070240020752, -0.999996185302734, -0.99991500377655]}, {"bufferView" : 7, "byteOffset" : 24, "componentType" : 5126, "count" : 29834, "type" : "VEC2", "max" : [0, 1], "min" : [0, 1]}, {"bufferView" : 0, "byteOffset" : 3592880, "componentType" : 5123, "count" : 6387, "type" : "SCALAR", "max" : [2122], "min" : [0]}, {"bufferView" : 8, "byteOffset" : 0, "componentType" : 5126, "count" : 2123, "type" : "VEC3", "max" : [1.2010190486908, 0.442463994026184, 1.00887095928192], "min" : [-1.33658003807068, -1.33987498283386, -0.726360976696014]}, {"bufferView" : 8, "byteOffset" : 12, "componentType" : 5126, "count" : 2123, "type" : "VEC3", "max" : [0.997164964675903, 0.999048709869385, 0.996841847896576], "min" : [-0.99944406747818, -0.965015828609467, -0.993200302124023]}, {"bufferView" : 8, "byteOffset" : 24, "componentType" : 5126, "count" : 2123, "type" : "VEC2", "max" : [0, 1], "min" : [0, 1]}, {"bufferView" : 0, "byteOffset" : 3605656, "componentType" : 5123, "count" : 331776, "type" : "SCALAR", "max" : [59903], "min" : [0]}, {"bufferView" : 9, "byteOffset" : 0, "componentType" : 5126, "count" : 59904, "type" : "VEC3", "max" : [1.41776895523071, 1.54252195358276, 1.33321797847748], "min" : [-1.54535698890686, -1.49110698699951, -1.17837297916412]}, {"bufferView" : 9, "byteOffset" : 12, "componentType" : 5126, "count" : 59904, "type" : "VEC3", "max" : [0.999991416931152, 0.999969840049744, 0.99988728761673], "min" : [-0.999969124794006, -0.999956905841827, -0.99992448091507]}, {"bufferView" : 9, "byteOffset" : 24, "componentType" : 5126, "count" : 59904, "type" : "VEC2", "max" : [1, 1], "min" : [0, 0]}, {"bufferView" : 0, "byteOffset" : 4269208, "componentType" : 5123, "count" : 383688, "type" : "SCALAR", "max" : [65512], "min" : [0]}, {"bufferView" : 10, "byteOffset" : 0, "componentType" : 5126, "count" : 65513, "type" : "VEC3", "max" : [1.45330369472504, 1.31680500507355, 0.369562774896622], "min" : [-1.30662083625793, -1.26524269580841, -1.40065395832062]}, {"bufferView" : 10, "byteOffset" : 12, "componentType" : 5126, "count" : 65513, "type" : "VEC3", "max" : [1.00000393390656, 0.990867972373962, 0.60456109046936], "min" : [-0.990549683570862, -0.994322419166565, -0.999998807907104]}, {"bufferView" : 10, "byteOffset" : 24, "componentType" : 5126, "count" : 65513, "type" : "VEC2", "max" : [0.999478995800018, 0.55987024307251], "min" : [-0.0972653552889824, 0.00111234188079834]}, {"bufferView" : 0, "byteOffset" : 5036584, "componentType" : 5123, "count" : 380610, "type" : "SCALAR", "max" : [65504], "min" : [0]}, {"bufferView" : 11, "byteOffset" : 0, "componentType" : 5126, "count" : 65505, "type" : "VEC3", "max" : [1.42674911022186, 1.51491177082062, 0.88152402639389], "min" : [-1.47710406780243, -1.46646845340729, -0.617380201816559]}, {"bufferView" : 11, "byteOffset" : 12, "componentType" : 5126, "count" : 65505, "type" : "VEC3", "max" : [0.999989032745361, 0.999998450279236, 0.865925431251526], "min" : [-0.999980211257935, -1.00000083446503, -0.891989171504974]}, {"bufferView" : 11, "byteOffset" : 24, "componentType" : 5126, "count" : 65505, "type" : "VEC2", "max" : [0.999320566654205, 0.678873598575592], "min" : [0.00049341336125508, 0.342171251773834]}, {"bufferView" : 0, "byteOffset" : 5797804, "componentType" : 5123, "count" : 377088, "type" : "SCALAR", "max" : [65478], "min" : [0]}, {"bufferView" : 12, "byteOffset" : 0, "componentType" : 5126, "count" : 65479, "type" : "VEC3", "max" : [1.39770579338074, 1.51482474803925, 1.58103108406067], "min" : [-1.52852094173431, -1.46623992919922, -0.695163547992706]}, {"bufferView" : 12, "byteOffset" : 12, "componentType" : 5126, "count" : 65479, "type" : "VEC3", "max" : [0.999991953372955, 0.999995231628418, 1.00000250339508], "min" : [-0.9999960064888, -0.999995052814484, -0.929057538509369]}, {"bufferView" : 12, "byteOffset" : 24, "componentType" : 5126, "count" : 65479, "type" : "VEC2", "max" : [0.999505996704102, 0.998050034046173], "min" : [-0.100000001490116, 0.323045015335083]}, {"bufferView" : 0, "byteOffset" : 6551980, "componentType" : 5123, "count" : 248847, "type" : "SCALAR", "max" : [42136], "min" : [0]}, {"bufferView" : 13, "byteOffset" : 0, "componentType" : 5126, "count" : 42137, "type" : "VEC3", "max" : [1.22669410705566, 1.37226700782776, 1.5815407037735], "min" : [-1.481196641922, -1.28737413883209, -1.05607104301453]}, {"bufferView" : 13, "byteOffset" : 12, "componentType" : 5126, "count" : 42137, "type" : "VEC3", "max" : [0.990260779857636, 0.997980654239655, 0.999994933605194], "min" : [-0.998548209667206, -0.989304304122925, -0.939098834991455]}, {"bufferView" : 13, "byteOffset" : 24, "componentType" : 5126, "count" : 42137, "type" : "VEC2", "max" : [0.999157011508942, 0.999190151691437], "min" : [-0.200000002980232, 0.220676064491272]}, {"bufferView" : 0, "byteOffset" : 7049676, "componentType" : 5123, "count" : 49767, "type" : "SCALAR", "max" : [17905], "min" : [0]}, {"bufferView" : 14, "byteOffset" : 0, "componentType" : 5126, "count" : 17906, "type" : "VEC3", "max" : [1.45098471641541, 1.51448321342468, 1.5815407037735], "min" : [-1.52815818786621, -1.46572911739349, -1.40065395832062]}, {"bufferView" : 14, "byteOffset" : 12, "componentType" : 5126, "count" : 17906, "type" : "VEC3", "max" : [0.999922215938568, 0.999602138996124, 0.999896585941315], "min" : [-0.999980211257935, -0.9998939037323, -0.999996185302734]}, {"bufferView" : 14, "byteOffset" : 24, "componentType" : 5126, "count" : 17906, "type" : "VEC2", "max" : [0.999507009983063, 0.999586343765259], "min" : [-0.0386492498219013, 0.000953912734985352]}], "asset" : {"generator" : "Aspose.3D 20.2.1", "version" : "2.0"}, "buffers" : [{"uri" : "buffer.bin", "byteLength" : 27367672}], "bufferViews" : [{"buffer" : 0, "byteOffset" : 0, "byteLength" : 7149212, "target" : 34963}, {"buffer" : 0, "byteOffset" : 7149216, "byteLength" : 1710080, "byteStride" : 32, "target" : 34962}, {"buffer" : 0, "byteOffset" : 8859300, "byteLength" : 236192, "byteStride" : 32, "target" : 34962}, {"buffer" : 0, "byteOffset" : 9095496, "byteLength" : 832064, "byteStride" : 32, "target" : 34962}, {"buffer" : 0, "byteOffset" : 9927564, "byteLength" : 2097120, "byteStride" : 32, "target" : 34962}, {"buffer" : 0, "byteOffset" : 12024688, "byteLength" : 2097088, "byteStride" : 32, "target" : 34962}, {"buffer" : 0, "byteOffset" : 14121780, "byteLength" : 2097024, "byteStride" : 32, "target" : 34962}, {"buffer" : 0, "byteOffset" : 16218808, "byteLength" : 954688, "byteStride" : 32, "target" : 34962}, {"buffer" : 0, "byteOffset" : 17173500, "byteLength" : 67936, "byteStride" : 32, "target" : 34962}, {"buffer" : 0, "byteOffset" : 17241440, "byteLength" : 1916928, "byteStride" : 32, "target" : 34962}, {"buffer" : 0, "byteOffset" : 19158372, "byteLength" : 2096416, "byteStride" : 32, "target" : 34962}, {"buffer" : 0, "byteOffset" : 21254792, "byteLength" : 2096160, "byteStride" : 32, "target" : 34962}, {"buffer" : 0, "byteOffset" : 23350956, "byteLength" : 2095328, "byteStride" : 32, "target" : 34962}, {"buffer" : 0, "byteOffset" : 25446288, "byteLength" : 1348384, "byteStride" : 32, "target" : 34962}, {"buffer" : 0, "byteOffset" : 26794676, "byteLength" : 572992, "byteStride" : 32, "target" : 34962}], "materials" : [{"pbrMetallicRoughness" : {"baseColorFactor" : [0.0313730016350746, 0.0313730016350746, 0.533333003520966, 1], "metallicFactor" : 0, "roughnessFactor" : 0.811438202857971}, "emissiveFactor" : [0, 0, 0], "alphaMode" : "OPAQUE", "doubleSided" : true}, {"pbrMetallicRoughness" : {"baseColorFactor" : [0.384374797344208, 0.239275246858597, 0.105652250349522, 1], "metallicFactor" : 0, "roughnessFactor" : 0.811438202857971}, "emissiveFactor" : [0, 0, 0], "alphaMode" : "OPAQUE", "doubleSided" : true}, {"pbrMetallicRoughness" : {"baseColorFactor" : [0.00514129223302007, 0.00380478799343109, 0.0352179743349552, 1], "metallicFactor" : 0, "roughnessFactor" : 0.652347326278687}, "emissiveFactor" : [0, 0, 0], "alphaMode" : "OPAQUE", "doubleSided" : true}, {"pbrMetallicRoughness" : {"baseColorFactor" : [0.384374797344208, 0.239275246858597, 0.105652250349522, 1], "metallicFactor" : 0, "roughnessFactor" : 0.811438202857971}, "emissiveFactor" : [0, 0, 0], "alphaMode" : "OPAQUE", "doubleSided" : true}, {"pbrMetallicRoughness" : {"baseColorFactor" : [0.384374797344208, 0.239275246858597, 0.105652250349522, 1], "metallicFactor" : 0, "roughnessFactor" : 0.811438202857971}, "emissiveFactor" : [0, 0, 0], "alphaMode" : "OPAQUE", "doubleSided" : true}, {"pbrMetallicRoughness" : {"baseColorFactor" : [0.384374797344208, 0.239275246858597, 0.105652250349522, 1], "metallicFactor" : 0, "roughnessFactor" : 0.811438202857971}, "emissiveFactor" : [0, 0, 0], "alphaMode" : "OPAQUE", "doubleSided" : true}, {"pbrMetallicRoughness" : {"baseColorFactor" : [0.384374797344208, 0.239275246858597, 0.105652250349522, 1], "metallicFactor" : 0, "roughnessFactor" : 0.811438202857971}, "emissiveFactor" : [0, 0, 0], "alphaMode" : "OPAQUE", "doubleSided" : true}, {"pbrMetallicRoughness" : {"baseColorFactor" : [0.384374797344208, 0.239275246858597, 0.105652250349522, 1], "metallicFactor" : 0, "roughnessFactor" : 0.811438202857971}, "emissiveFactor" : [0, 0, 0], "alphaMode" : "OPAQUE", "doubleSided" : true}, {"pbrMetallicRoughness" : {"baseColorFactor" : [0.529411971569061, 0.0235290005803108, 0.0235290005803108, 1], "metallicFactor" : 0, "roughnessFactor" : 0.811438202857971}, "emissiveFactor" : [0, 0, 0], "alphaMode" : "OPAQUE", "doubleSided" : true}, {"pbrMetallicRoughness" : {"baseColorFactor" : [0, 0, 0, 1], "metallicFactor" : 0, "roughnessFactor" : 0.386363625526428}, "emissiveFactor" : [0, 0, 0], "alphaMode" : "OPAQUE", "doubleSided" : true}, {"pbrMetallicRoughness" : {"baseColorFactor" : [0, 0, 0, 1], "metallicFactor" : 0, "roughnessFactor" : 0.386363625526428}, "emissiveFactor" : [0, 0, 0], "alphaMode" : "OPAQUE", "doubleSided" : true}, {"pbrMetallicRoughness" : {"baseColorFactor" : [0, 0, 0, 1], "metallicFactor" : 0, "roughnessFactor" : 0.386363625526428}, "emissiveFactor" : [0, 0, 0], "alphaMode" : "OPAQUE", "doubleSided" : true}, {"pbrMetallicRoughness" : {"baseColorFactor" : [0, 0, 0, 1], "metallicFactor" : 0, "roughnessFactor" : 0.386363625526428}, "emissiveFactor" : [0, 0, 0], "alphaMode" : "OPAQUE", "doubleSided" : true}, {"pbrMetallicRoughness" : {"baseColorFactor" : [0, 0, 0, 1], "metallicFactor" : 0, "roughnessFactor" : 0.386363625526428}, "emissiveFactor" : [0, 0, 0], "alphaMode" : "OPAQUE", "doubleSided" : true}], "meshes" : [{"primitives" : [{"attributes" : {"POSITION" : 1, "NORMAL" : 2, "TEXCOORD_0" : 3}, "indices" : 0, "material" : 0, "mode" : 4}]}, {"primitives" : [{"attributes" : {"POSITION" : 5, "NORMAL" : 6, "TEXCOORD_0" : 7}, "indices" : 4, "material" : 1, "mode" : 4}]}, {"primitives" : [{"attributes" : {"POSITION" : 9, "NORMAL" : 10, "TEXCOORD_0" : 11}, "indices" : 8, "material" : 2, "mode" : 4}]}, {"primitives" : [{"attributes" : {"POSITION" : 13, "NORMAL" : 14, "TEXCOORD_0" : 15}, "indices" : 12, "material" : 3, "mode" : 4}, {"attributes" : {"POSITION" : 17, "NORMAL" : 18, "TEXCOORD_0" : 19}, "indices" : 16, "material" : 4, "mode" : 4}, {"attributes" : {"POSITION" : 21, "NORMAL" : 22, "TEXCOORD_0" : 23}, "indices" : 20, "material" : 5, "mode" : 4}, {"attributes" : {"POSITION" : 25, "NORMAL" : 26, "TEXCOORD_0" : 27}, "indices" : 24, "material" : 6, "mode" : 4}, {"attributes" : {"POSITION" : 29, "NORMAL" : 30, "TEXCOORD_0" : 31}, "indices" : 28, "material" : 7, "mode" : 4}]}, {"primitives" : [{"attributes" : {"POSITION" : 33, "NORMAL" : 34, "TEXCOORD_0" : 35}, "indices" : 32, "material" : 8, "mode" : 4}]}, {"primitives" : [{"attributes" : {"POSITION" : 37, "NORMAL" : 38, "TEXCOORD_0" : 39}, "indices" : 36, "material" : 9, "mode" : 4}, {"attributes" : {"POSITION" : 41, "NORMAL" : 42, "TEXCOORD_0" : 43}, "indices" : 40, "material" : 10, "mode" : 4}, {"attributes" : {"POSITION" : 45, "NORMAL" : 46, "TEXCOORD_0" : 47}, "indices" : 44, "material" : 11, "mode" : 4}, {"attributes" : {"POSITION" : 49, "NORMAL" : 50, "TEXCOORD_0" : 51}, "indices" : 48, "material" : 12, "mode" : 4}, {"attributes" : {"POSITION" : 53, "NORMAL" : 54, "TEXCOORD_0" : 55}, "indices" : 52, "material" : 13, "mode" : 4}]}], "nodes" : [{"matrix" : [1, 0, 0, 0, 0, 1, 0, 0, 0, 0, 1, 0, 0.0184909403324127, -0.0318528972566128, -0.0512656606733799, 1], "mesh" : 1, "name" : "Group31697"}, {"matrix" : [1, 0, 0, 0, 0, 1, 0, 0, 0, 0, 1, 0, 0.0184909403324127, -0.0318528972566128, -0.0512656606733799, 1], "mesh" : 2, "name" : "Group38799"}, {"matrix" : [-0.11009992650856, 0.993920640139862, 0, 0, -0.993920640139862, -0.11009992650856, 0, 0, 0, 0, 1, 0, 0.0296233929693699, 0.0218855142593384, -0.0512656681239605, 1], "mesh" : 3, "name" : "Group49076"}, {"matrix" : [1, 0, 0, 0, 0, 1, 0, 0, 0, 0, 1, 0, 0.0184909403324127, -0.0318528972566128, -0.0512656606733799, 1], "mesh" : 4, "name" : "Object001"}, {"matrix" : [1, 0, 0, 0, 0, 1, 0, 0, 0, 0, 1, 0, 0.0184909403324127, -0.0318528972566128, -0.0512656606733799, 1], "mesh" : 5, "name" : "Virus base"}, {"children" : [0, 1, 2, 3, 4], "matrix" : [1, 0, 0, 0, 0, -1.34358856485051E-07, 0.999999965771451, 0, 0, -0.999999965771451, -1.34358856485051E-07, 0, -0.0184909403324127, -0.0512656643986702, 0.0318528898060322, 1], "mesh" : 0, "name" : "Box002"}], "scene" : 0, "scenes" : [{"nodes" : [5]}]}